<svg xmlns="http://www.w3.org/2000/svg" width="178.617" height="171.932" viewBox="0 0 178.617 171.932">
  <g id="Group_2" data-name="Group 2" transform="translate(-566 -514)">
    <path id="icons8-google_code_1_" data-name="icons8-google_code (1)" d="M10.531,4A8.547,8.547,0,0,0,2,12.531V126.275a8.547,8.547,0,0,0,8.531,8.531H64.559v5.687H43.688a14.176,14.176,0,0,0-10.064,4.154L19.062,159.232a5.693,5.693,0,0,0-1.222,6.2,5.632,5.632,0,0,0,5.232,3.5H151.545a5.632,5.632,0,0,0,5.232-3.5,5.693,5.693,0,0,0-1.222-6.2l-14.562-14.585a14.176,14.176,0,0,0-10.064-4.154H110.057v-5.687h54.029a8.547,8.547,0,0,0,8.531-8.531V12.531A8.547,8.547,0,0,0,164.086,4Zm0,5.687H164.086a2.849,2.849,0,0,1,2.844,2.844V126.275a2.849,2.849,0,0,1-2.844,2.844H10.531a2.849,2.849,0,0,1-2.844-2.844V12.531a2.849,2.849,0,0,1,2.844-2.844ZM21.905,21.062a2.842,2.842,0,0,0-2.844,2.844v91A2.842,2.842,0,0,0,21.9,117.75H152.711a2.842,2.842,0,0,0,2.844-2.844v-91a2.842,2.842,0,0,0-2.844-2.844Zm2.844,5.687H149.868v85.308H24.749Zm39.81,11.374a2.844,2.844,0,0,0-2.011.833L39.8,61.705a2.843,2.843,0,0,0,0,4.021L62.549,88.475a2.843,2.843,0,0,0,4.021-4.021L45.832,63.716,66.57,42.977a2.844,2.844,0,0,0-2.011-4.854Zm45.5,0a2.844,2.844,0,0,0-2.011,4.854l20.738,20.738L108.047,84.454a2.843,2.843,0,1,0,4.021,4.021l22.749-22.749a2.843,2.843,0,0,0,0-4.021L112.068,38.956a2.844,2.844,0,0,0-2.011-.833ZM30.436,95a2.842,2.842,0,0,0-2.844,2.844v5.687a2.844,2.844,0,1,0,5.688,0V97.839A2.842,2.842,0,0,0,30.436,95Zm14.218,0a2.842,2.842,0,0,0-2.844,2.844v5.687a2.844,2.844,0,1,0,5.688,0V97.839A2.842,2.842,0,0,0,44.654,95Zm14.218,0a2.842,2.842,0,0,0-2.844,2.844v5.687a2.844,2.844,0,1,0,5.688,0V97.839A2.842,2.842,0,0,0,58.872,95ZM73.09,95a2.842,2.842,0,0,0-2.844,2.844v5.687a2.844,2.844,0,1,0,5.688,0V97.839A2.842,2.842,0,0,0,73.09,95Zm14.218,0a2.842,2.842,0,0,0-2.844,2.844v5.687a2.844,2.844,0,1,0,5.688,0V97.839A2.842,2.842,0,0,0,87.308,95Zm14.218,0a2.842,2.842,0,0,0-2.844,2.844v5.687a2.844,2.844,0,1,0,5.688,0V97.839A2.842,2.842,0,0,0,101.526,95Zm14.218,0a2.842,2.842,0,0,0-2.844,2.844v5.687a2.844,2.844,0,1,0,5.688,0V97.839A2.842,2.842,0,0,0,115.744,95Zm14.218,0a2.842,2.842,0,0,0-2.844,2.844v5.687a2.844,2.844,0,1,0,5.687,0V97.839A2.842,2.842,0,0,0,129.962,95Zm14.218,0a2.842,2.842,0,0,0-2.844,2.844v5.687a2.844,2.844,0,1,0,5.688,0V97.839A2.842,2.842,0,0,0,144.18,95ZM70.246,134.81H104.37v17.062H70.247ZM43.688,146.18H64.559v5.687a5.7,5.7,0,0,0,5.687,5.687H104.37a5.7,5.7,0,0,0,5.687-5.687V146.18h20.872a8.552,8.552,0,0,1,6.032,2.5l14.585,14.562H23.072L37.656,148.68a8.552,8.552,0,0,1,6.032-2.5Z" transform="translate(564 517)" fill="#fae6c5"/>
    <path id="icons8-google_code" d="M10.531,4A8.547,8.547,0,0,0,2,12.531V126.275a8.547,8.547,0,0,0,8.531,8.531H64.559v5.687H43.688a14.176,14.176,0,0,0-10.064,4.154L19.062,159.232a5.693,5.693,0,0,0-1.222,6.2,5.632,5.632,0,0,0,5.232,3.5H151.545a5.632,5.632,0,0,0,5.232-3.5,5.693,5.693,0,0,0-1.222-6.2l-14.562-14.585a14.176,14.176,0,0,0-10.064-4.154H110.057v-5.687h54.029a8.547,8.547,0,0,0,8.531-8.531V12.531A8.547,8.547,0,0,0,164.086,4Zm0,5.687H164.086a2.849,2.849,0,0,1,2.844,2.844V126.275a2.849,2.849,0,0,1-2.844,2.844H10.531a2.849,2.849,0,0,1-2.844-2.844V12.531a2.849,2.849,0,0,1,2.844-2.844ZM21.905,21.062a2.842,2.842,0,0,0-2.844,2.844v91A2.842,2.842,0,0,0,21.9,117.75H152.711a2.842,2.842,0,0,0,2.844-2.844v-91a2.842,2.842,0,0,0-2.844-2.844Zm2.844,5.687H149.868v85.308H24.749Zm39.81,11.374a2.844,2.844,0,0,0-2.011.833L39.8,61.705a2.843,2.843,0,0,0,0,4.021L62.549,88.475a2.843,2.843,0,0,0,4.021-4.021L45.832,63.716,66.57,42.977a2.844,2.844,0,0,0-2.011-4.854Zm45.5,0a2.844,2.844,0,0,0-2.011,4.854l20.738,20.738L108.047,84.454a2.843,2.843,0,1,0,4.021,4.021l22.749-22.749a2.843,2.843,0,0,0,0-4.021L112.068,38.956a2.844,2.844,0,0,0-2.011-.833ZM30.436,95a2.842,2.842,0,0,0-2.844,2.844v5.687a2.844,2.844,0,1,0,5.688,0V97.839A2.842,2.842,0,0,0,30.436,95Zm14.218,0a2.842,2.842,0,0,0-2.844,2.844v5.687a2.844,2.844,0,1,0,5.688,0V97.839A2.842,2.842,0,0,0,44.654,95Zm14.218,0a2.842,2.842,0,0,0-2.844,2.844v5.687a2.844,2.844,0,1,0,5.688,0V97.839A2.842,2.842,0,0,0,58.872,95ZM73.09,95a2.842,2.842,0,0,0-2.844,2.844v5.687a2.844,2.844,0,1,0,5.688,0V97.839A2.842,2.842,0,0,0,73.09,95Zm14.218,0a2.842,2.842,0,0,0-2.844,2.844v5.687a2.844,2.844,0,1,0,5.688,0V97.839A2.842,2.842,0,0,0,87.308,95Zm14.218,0a2.842,2.842,0,0,0-2.844,2.844v5.687a2.844,2.844,0,1,0,5.688,0V97.839A2.842,2.842,0,0,0,101.526,95Zm14.218,0a2.842,2.842,0,0,0-2.844,2.844v5.687a2.844,2.844,0,1,0,5.688,0V97.839A2.842,2.842,0,0,0,115.744,95Zm14.218,0a2.842,2.842,0,0,0-2.844,2.844v5.687a2.844,2.844,0,1,0,5.687,0V97.839A2.842,2.842,0,0,0,129.962,95Zm14.218,0a2.842,2.842,0,0,0-2.844,2.844v5.687a2.844,2.844,0,1,0,5.688,0V97.839A2.842,2.842,0,0,0,144.18,95ZM70.246,134.81H104.37v17.062H70.247ZM43.688,146.18H64.559v5.687a5.7,5.7,0,0,0,5.687,5.687H104.37a5.7,5.7,0,0,0,5.687-5.687V146.18h20.872a8.552,8.552,0,0,1,6.032,2.5l14.585,14.562H23.072L37.656,148.68a8.552,8.552,0,0,1,6.032-2.5Z" transform="translate(572 510)" fill="#6177fb"/>
  </g>
</svg>
