<svg xmlns="http://www.w3.org/2000/svg" width="178.675" height="168.011" viewBox="0 0 178.675 168.011">
  <g id="Group_1" data-name="Group 1" transform="translate(-204 -513)">
    <path id="icons8-exhibition_1_" data-name="icons8-exhibition (1)" d="M22.334,3a3.566,3.566,0,0,0-3.556,3.556v96a3.566,3.566,0,0,0,3.556,3.556H34.279A14.1,14.1,0,0,1,29.911,99H25.89V10.111H146.784V99h-4.021a14.1,14.1,0,0,1-4.368,7.111H150.34a3.566,3.566,0,0,0,3.556-3.556v-96A3.566,3.566,0,0,0,150.34,3ZM36.557,17.223A3.566,3.566,0,0,0,33,20.779v65.28a14.1,14.1,0,0,1,7.111-4.368V24.334H132.56V81.691a14.1,14.1,0,0,1,7.111,4.368V20.779a3.566,3.566,0,0,0-3.556-3.556Zm16.5,67.559a14.1,14.1,0,0,1,4.368,7.111h57.822a14.1,14.1,0,0,1,4.368-7.111Zm-9.389,3.556A7.1,7.1,0,0,0,37.516,99a7.3,7.3,0,0,0,1.118,1.458,7.113,7.113,0,0,0,1.326,1.028v.007C38.406,117.717,21.9,131.006,1,131.006v7.111c16.32,0,30.871-7.245,39.113-18.306V155.9H33v7.111H54.336V155.9H47.224V119.811c8.242,11.062,22.792,18.306,39.113,18.306s30.871-7.245,39.113-18.306V155.9h-7.111v7.111h21.334V155.9h-7.111V119.811c8.242,11.062,22.792,18.306,39.113,18.306v-7.111c-20.9,0-37.406-13.288-38.96-29.508v-.007A7.2,7.2,0,0,0,135.159,99a7.105,7.105,0,0,0-11.188-8.57,7.3,7.3,0,0,0-1.118,1.458,7.075,7.075,0,0,0,0,7.111,7.2,7.2,0,0,0,2.445,2.486v.007C123.744,117.712,107.236,131,86.338,131s-37.406-13.3-38.96-29.515A7.2,7.2,0,0,0,49.822,99a7.111,7.111,0,0,0-6.153-10.667ZM57.426,99a14.1,14.1,0,0,1-4.368,7.111h66.559A14.1,14.1,0,0,1,115.248,99Z" transform="translate(203 518)" fill="#fae6c5"/>
    <path id="icons8-exhibition" d="M22.334,3a3.566,3.566,0,0,0-3.556,3.556v96a3.566,3.566,0,0,0,3.556,3.556H34.279A14.1,14.1,0,0,1,29.911,99H25.89V10.111H146.784V99h-4.021a14.1,14.1,0,0,1-4.368,7.111H150.34a3.566,3.566,0,0,0,3.556-3.556v-96A3.566,3.566,0,0,0,150.34,3ZM36.557,17.223A3.566,3.566,0,0,0,33,20.779v65.28a14.1,14.1,0,0,1,7.111-4.368V24.334H132.56V81.691a14.1,14.1,0,0,1,7.111,4.368V20.779a3.566,3.566,0,0,0-3.556-3.556Zm16.5,67.559a14.1,14.1,0,0,1,4.368,7.111h57.822a14.1,14.1,0,0,1,4.368-7.111Zm-9.389,3.556A7.1,7.1,0,0,0,37.516,99a7.3,7.3,0,0,0,1.118,1.458,7.113,7.113,0,0,0,1.326,1.028v.007C38.406,117.717,21.9,131.006,1,131.006v7.111c16.32,0,30.871-7.245,39.113-18.306V155.9H33v7.111H54.336V155.9H47.224V119.811c8.242,11.062,22.792,18.306,39.113,18.306s30.871-7.245,39.113-18.306V155.9h-7.111v7.111h21.334V155.9h-7.111V119.811c8.242,11.062,22.792,18.306,39.113,18.306v-7.111c-20.9,0-37.406-13.288-38.96-29.508v-.007A7.2,7.2,0,0,0,135.159,99a7.105,7.105,0,0,0-11.188-8.57,7.3,7.3,0,0,0-1.118,1.458,7.075,7.075,0,0,0,0,7.111,7.2,7.2,0,0,0,2.445,2.486v.007C123.744,117.712,107.236,131,86.338,131s-37.406-13.3-38.96-29.515A7.2,7.2,0,0,0,49.822,99a7.111,7.111,0,0,0-6.153-10.667ZM57.426,99a14.1,14.1,0,0,1-4.368,7.111h66.559A14.1,14.1,0,0,1,115.248,99Z" transform="translate(211 510)" fill="#6177fb"/>
  </g>
</svg>
