<svg width="695" height="384" viewBox="0 0 695 384" fill="none" xmlns="http://www.w3.org/2000/svg">
<path d="M436.669 80.9307C437.74 80.9307 438.811 81.2367 439.728 81.5426C439.575 81.0837 439.575 80.6247 439.575 80.1657C439.575 77.106 442.022 74.5052 445.234 74.5052C447.835 74.5052 449.976 76.1881 450.588 78.4829C450.894 71.7514 456.4 66.2438 463.282 66.2438C470.318 66.2438 475.977 71.9044 475.977 78.9418C475.977 79.7068 475.824 80.6247 475.671 81.3897C477.354 79.5538 479.648 78.3299 482.401 78.3299C487.295 78.3299 491.119 82.3076 491.119 87.0502C491.119 91.9458 487.142 95.7705 482.401 95.7705C477.507 95.7705 440.799 95.7705 436.516 95.7705C432.387 95.7705 428.869 92.4048 428.869 88.1211C429.175 84.2964 432.54 80.9307 436.669 80.9307Z" fill="#E1F1FF"/>
<path d="M289.226 294.655C288.462 294.502 287.697 294.349 286.932 294.196" stroke="#A1C7FF" stroke-linejoin="round"/>
<path d="M283.261 293.584C255.425 290.677 219.941 305.364 192.563 307.812C137.195 312.708 104.158 287.312 89.4751 262.374C71.2742 231.165 76.7804 190.776 108.288 160.484C143.466 126.827 179.715 129.581 223 115.2C261.849 102.349 294.427 70.0685 324.252 36.2582C374.113 -20.3474 470.318 -10.5562 496.013 72.6693C504.731 100.972 506.414 129.122 533.792 146.716C566.676 167.828 608.89 165.533 644.527 179.608C674.811 191.541 698.518 222.904 693.165 256.408C687.2 293.737 649.421 322.958 615.314 333.208C579.829 343.764 546.334 339.633 510.544 341.163" stroke="#A1C7FF" stroke-linejoin="round" stroke-dasharray="3.01 3.01"/>
<path d="M508.555 341.163C507.79 341.163 507.026 341.316 506.261 341.316" stroke="#A1C7FF" stroke-linejoin="round"/>
<path d="M282.803 383.847L290.909 319.898" stroke="#89B5F4" stroke-width="2" stroke-miterlimit="10"/>
<path d="M387.114 383.847L378.855 319.898" stroke="#89B5F4" stroke-width="2" stroke-miterlimit="10"/>
<path d="M438.046 49.7211H231.871V325.1H438.046V49.7211Z" fill="white" stroke="#89B5F4" stroke-miterlimit="10"/>
<path d="M426.621 313.757L426.621 61.0204L243.082 61.0204L243.082 313.757H426.621Z" fill="#E9F1FF" stroke="#89B5F4" stroke-miterlimit="10"/>
<path d="M300.851 186.186C302.074 185.269 302.686 184.963 302.686 184.963C302.686 184.963 302.992 185.727 303.451 187.104" stroke="#4A63FE" stroke-linejoin="round"/>
<path d="M304.521 190.011C308.345 201.179 315.993 227.187 306.969 230.706C297.792 234.225 288.615 255.031 285.25 263.445" stroke="#4A63FE" stroke-linejoin="round" stroke-dasharray="3.02 3.02"/>
<path d="M284.791 264.975C284.332 266.352 284.026 267.117 284.026 267.117C284.026 267.117 283.873 266.352 283.72 264.822" stroke="#4A63FE" stroke-linejoin="round"/>
<path d="M283.109 261.763C281.579 251.359 278.826 228.105 281.732 214.03C284.485 200.414 294.58 191.082 299.78 187.104" stroke="#4A63FE" stroke-linejoin="round" stroke-dasharray="2.94 2.94"/>
<path d="M369.831 186.186C368.607 185.269 367.995 184.963 367.995 184.963C367.995 184.963 367.689 185.727 367.23 187.104" stroke="#4A63FE" stroke-linejoin="round"/>
<path d="M366.16 190.011C362.336 201.179 354.689 227.187 363.713 230.706C372.89 234.225 382.066 255.031 385.431 263.445" stroke="#4A63FE" stroke-linejoin="round" stroke-dasharray="3.02 3.02"/>
<path d="M385.89 264.975C386.349 266.352 386.655 267.117 386.655 267.117C386.655 267.117 386.808 266.352 386.961 264.822" stroke="#4A63FE" stroke-linejoin="round"/>
<path d="M387.573 261.763C389.102 251.359 391.855 228.105 388.949 214.03C386.196 200.414 376.101 191.082 370.901 187.104" stroke="#4A63FE" stroke-linejoin="round" stroke-dasharray="2.94 2.94"/>
<path d="M335.264 106.174V82.9195" stroke="#202263" stroke-width="2" stroke-miterlimit="10" stroke-linecap="round" stroke-linejoin="round"/>
<path d="M360.501 231.624C362.03 259.927 335.264 277.061 335.264 277.061C335.264 277.061 310.027 260.386 310.027 231.624C310.18 218.467 359.889 218.467 360.501 231.624Z" stroke="white" stroke-miterlimit="10"/>
<path d="M335.417 267.882C329.299 262.528 317.522 249.982 317.216 232.542C319.051 231.165 325.322 229.023 335.111 229.023C345.359 229.023 351.783 231.318 353.618 232.695C354.077 249.982 341.841 262.528 335.417 267.882Z" stroke="white" stroke-miterlimit="10"/>
<path d="M335.57 257.938C331.134 253.042 324.405 242.18 324.711 232.389C327.005 231.93 330.523 231.318 334.958 231.318C340.005 231.318 343.676 231.93 346.123 232.542C346.429 242.486 340.158 253.195 335.57 257.938Z" stroke="white" stroke-miterlimit="10"/>
<path d="M367.689 130.958C357.136 106.939 335.417 96.3825 335.417 96.3825C331.593 98.0653 313.698 106.786 303.145 130.958C290.297 160.026 304.674 234.837 304.674 234.837H366.16C366.16 234.99 380.537 160.179 367.689 130.958Z" fill="#FFAC06"/>
<path d="M302.992 225.657H367.689C367.995 224.128 368.148 222.598 368.454 220.762H302.227C302.533 222.598 302.839 224.28 302.992 225.657Z" fill="white"/>
<path d="M340.603 158.213C347.555 155.351 350.871 147.393 348.01 140.44C345.149 133.486 337.194 130.169 330.242 133.031C323.29 135.893 319.974 143.851 322.835 150.804C325.696 157.758 333.652 161.075 340.603 158.213Z" fill="#4A63FE"/>
<g opacity="0.44">
<path opacity="0.44" d="M347.907 134.1L345.527 131.942L322.72 157.102L325.099 159.26L347.907 134.1Z" fill="white"/>
<path opacity="0.44" d="M350.788 137.009L349.202 135.57L326.395 160.73L327.981 162.169L350.788 137.009Z" fill="white"/>
<path opacity="0.44" d="M344.089 130.883L342.503 129.444L319.696 154.604L321.282 156.043L344.089 130.883Z" fill="white"/>
</g>
<path d="M335.417 127.133C325.322 127.133 317.063 135.394 317.063 145.492C317.063 155.589 325.322 163.85 335.417 163.85C345.512 163.85 353.771 155.589 353.771 145.492C353.771 135.394 345.512 127.133 335.417 127.133ZM335.417 159.108C327.923 159.108 321.805 152.988 321.805 145.492C321.805 137.995 327.923 131.876 335.417 131.876C342.912 131.876 349.029 137.995 349.029 145.492C349.029 153.141 342.912 159.108 335.417 159.108Z" stroke="#202263" stroke-miterlimit="10" stroke-dasharray="3 3"/>
<path d="M359.889 117.801C349.03 103.114 335.264 96.5355 335.264 96.5355C332.205 97.7594 320.428 103.573 310.333 117.801H359.889Z" fill="#202263"/>
<path d="M307.58 122.237H362.948C362.795 121.931 362.489 121.626 362.336 121.32H308.192C308.039 121.473 307.886 121.778 307.58 122.237Z" fill="white"/>
<path d="M335.417 189.858C322.416 192 331.287 258.091 334.346 279.203C334.499 280.58 336.182 280.58 336.335 279.203C339.547 258.091 348.418 192 335.417 189.858Z" stroke="#4A63FE" stroke-miterlimit="10" stroke-dasharray="3.06 3.06"/>
<path d="M385.431 85.0614H404.091" stroke="#89B5F4" stroke-miterlimit="10" stroke-linejoin="round"/>
<path d="M385.431 88.4271H415.256" stroke="#89B5F4" stroke-miterlimit="10" stroke-linejoin="round"/>
<path d="M385.431 91.9458H415.256" stroke="#89B5F4" stroke-miterlimit="10" stroke-linejoin="round"/>
<path d="M385.431 95.3116H415.256" stroke="#89B5F4" stroke-miterlimit="10" stroke-linejoin="round"/>
<path d="M259.86 106.327H278.52" stroke="#89B5F4" stroke-miterlimit="10" stroke-linejoin="round"/>
<path d="M259.86 109.845H289.532" stroke="#89B5F4" stroke-miterlimit="10" stroke-linejoin="round"/>
<path d="M259.86 113.211H289.532" stroke="#89B5F4" stroke-miterlimit="10" stroke-linejoin="round"/>
<path d="M259.86 116.577H289.532" stroke="#89B5F4" stroke-miterlimit="10" stroke-linejoin="round"/>
<path d="M404.856 146.41H415.256" stroke="#89B5F4" stroke-miterlimit="10" stroke-linejoin="round"/>
<path d="M385.431 149.775H415.256" stroke="#89B5F4" stroke-miterlimit="10" stroke-linejoin="round"/>
<path d="M385.431 153.141H415.256" stroke="#89B5F4" stroke-miterlimit="10" stroke-linejoin="round"/>
<path d="M385.431 156.66H415.256" stroke="#89B5F4" stroke-miterlimit="10" stroke-linejoin="round"/>
<path d="M274.084 282.11H284.332" stroke="#89B5F4" stroke-miterlimit="10" stroke-linejoin="round"/>
<path d="M254.507 285.476H284.332" stroke="#89B5F4" stroke-miterlimit="10" stroke-linejoin="round"/>
<path d="M254.507 288.994H284.332" stroke="#89B5F4" stroke-miterlimit="10" stroke-linejoin="round"/>
<path d="M254.507 292.36H284.332" stroke="#89B5F4" stroke-miterlimit="10" stroke-linejoin="round"/>
<path d="M392.008 277.367H373.501" stroke="#89B5F4" stroke-miterlimit="10" stroke-linejoin="round"/>
<path d="M403.326 280.886H373.654" stroke="#89B5F4" stroke-miterlimit="10" stroke-linejoin="round"/>
<path d="M403.326 284.252H373.654" stroke="#89B5F4" stroke-miterlimit="10" stroke-linejoin="round"/>
<path d="M403.326 287.618H373.654" stroke="#89B5F4" stroke-miterlimit="10" stroke-linejoin="round"/>
<path d="M337.711 109.386H357.748V89.345H380.078" stroke="#4A63FE" stroke-width="0.75" stroke-miterlimit="10" stroke-linejoin="round"/>
<path d="M337.711 110.457C338.303 110.457 338.782 109.978 338.782 109.386C338.782 108.795 338.303 108.316 337.711 108.316C337.12 108.316 336.641 108.795 336.641 109.386C336.641 109.978 337.12 110.457 337.711 110.457Z" fill="#4A63FE"/>
<path d="M317.063 145.645H272.249V121.32" stroke="#4A63FE" stroke-width="0.75" stroke-miterlimit="10" stroke-linejoin="round"/>
<path d="M318.134 145.645C318.134 145.033 317.675 144.574 317.063 144.574C316.451 144.574 315.992 145.033 315.992 145.645C315.992 146.257 316.451 146.716 317.063 146.716C317.675 146.716 318.134 146.257 318.134 145.645Z" fill="#4A63FE"/>
<path d="M290.45 211.735H263.684V277.061" stroke="#4A63FE" stroke-width="0.75" stroke-miterlimit="10" stroke-linejoin="round"/>
<path d="M291.521 211.735C291.521 211.124 291.062 210.665 290.45 210.665C289.838 210.665 289.379 211.124 289.379 211.735C289.379 212.347 289.838 212.806 290.45 212.806C291.062 212.806 291.521 212.347 291.521 211.735Z" fill="#4A63FE"/>
<path d="M334.346 210.665H359.43V277.061H370.442" stroke="#4A63FE" stroke-width="0.75" stroke-miterlimit="10" stroke-linejoin="round"/>
<path d="M335.417 210.665C335.417 210.053 334.958 209.594 334.346 209.594C333.735 209.594 333.276 210.053 333.276 210.665C333.276 211.276 333.735 211.735 334.346 211.735C334.958 211.735 335.417 211.276 335.417 210.665Z" fill="#4A63FE"/>
<path d="M380.384 206.381H398.585V160.637" stroke="#4A63FE" stroke-width="0.75" stroke-miterlimit="10" stroke-linejoin="round"/>
<path d="M380.384 207.758C380.975 207.758 381.455 207.278 381.455 206.687C381.455 206.095 380.975 205.616 380.384 205.616C379.793 205.616 379.313 206.095 379.313 206.687C379.313 207.278 379.793 207.758 380.384 207.758Z" fill="#4A63FE"/>
<path d="M446.305 34.4223H459.459" stroke="#A1C7FF" stroke-miterlimit="10" stroke-linecap="round"/>
<path d="M503.661 243.404H516.814" stroke="#A1C7FF" stroke-miterlimit="10" stroke-linecap="round"/>
<path d="M433.457 34.4223H441.258" stroke="#A1C7FF" stroke-miterlimit="10" stroke-linecap="round"/>
<path d="M644.986 154.671H658.139" stroke="#A1C7FF" stroke-miterlimit="10" stroke-linecap="round"/>
<path d="M632.138 154.671H639.938" stroke="#A1C7FF" stroke-miterlimit="10" stroke-linecap="round"/>
<path d="M515.591 237.59H523.544" stroke="#A1C7FF" stroke-miterlimit="10" stroke-linecap="round"/>
<path d="M104.005 215.866H117.159" stroke="#A1C7FF" stroke-miterlimit="10" stroke-linecap="round"/>
<path d="M91.1576 215.866H99.1109" stroke="#A1C7FF" stroke-miterlimit="10" stroke-linecap="round"/>
<path d="M78.4628 117.801C78.4628 119.178 77.3922 120.249 76.0156 120.249C74.6391 120.249 73.5684 119.178 73.5684 117.801C73.5684 116.424 74.6391 115.353 76.0156 115.353C77.3922 115.353 78.4628 116.424 78.4628 117.801Z" stroke="#A1C7FF" stroke-miterlimit="10" stroke-linecap="round"/>
<path d="M277.908 32.1275C277.908 33.5044 276.838 34.5753 275.461 34.5753C274.084 34.5753 273.014 33.5044 273.014 32.1275C273.014 30.7506 274.084 29.6797 275.461 29.6797C276.838 29.6797 277.908 30.7506 277.908 32.1275Z" stroke="#A1C7FF" stroke-miterlimit="10" stroke-linecap="round"/>
<path d="M627.549 134.477C627.549 135.853 626.479 136.924 625.102 136.924C623.726 136.924 622.655 135.853 622.655 134.477C622.655 133.1 623.726 132.029 625.102 132.029C626.326 132.029 627.549 133.1 627.549 134.477Z" stroke="#A1C7FF" stroke-miterlimit="10" stroke-linecap="round"/>
<path d="M468.788 216.784C468.788 218.161 467.718 219.232 466.341 219.232C464.965 219.232 463.894 218.161 463.894 216.784C463.894 215.407 464.965 214.336 466.341 214.336C467.718 214.489 468.788 215.56 468.788 216.784Z" stroke="#A1C7FF" stroke-miterlimit="10" stroke-linecap="round"/>
<path d="M135.819 183.28V190.011" stroke="#A1C7FF" stroke-miterlimit="10" stroke-linecap="round"/>
<path d="M139.184 186.645H132.454" stroke="#A1C7FF" stroke-miterlimit="10" stroke-linecap="round"/>
<path d="M325.169 4.74265V11.4741" stroke="#A1C7FF" stroke-miterlimit="10" stroke-linecap="round"/>
<path d="M328.534 8.10838H321.652" stroke="#A1C7FF" stroke-miterlimit="10" stroke-linecap="round"/>
<path d="M169.009 57.6765V64.408" stroke="#A1C7FF" stroke-miterlimit="10" stroke-linecap="round"/>
<path d="M172.373 61.0423H165.644" stroke="#A1C7FF" stroke-miterlimit="10" stroke-linecap="round"/>
<path d="M485.919 109.845V116.577" stroke="#A1C7FF" stroke-miterlimit="10" stroke-linecap="round"/>
<path d="M489.284 113.211H482.554" stroke="#A1C7FF" stroke-miterlimit="10" stroke-linecap="round"/>
<path d="M643.456 273.696V280.427" stroke="#A1C7FF" stroke-miterlimit="10" stroke-linecap="round"/>
<path d="M646.821 277.061H640.091" stroke="#A1C7FF" stroke-miterlimit="10" stroke-linecap="round"/>
<path d="M135.513 238.355C138.266 244.781 135.36 252.277 128.936 255.031C122.512 257.785 115.018 254.878 112.265 248.453C109.511 242.027 112.417 234.531 118.841 231.777C125.265 229.023 132.76 231.93 135.513 238.355Z" stroke="#A1C7FF" stroke-miterlimit="10" stroke-linecap="round" stroke-linejoin="round"/>
<path d="M126.642 249.676C116.547 253.96 104.923 256.408 103.241 252.277C101.864 249.065 107.982 244.322 111.347 242.027V243.863C105.841 247.535 105.841 249.524 106.452 250.9C107.523 253.195 114.712 253.195 126.183 248.3C137.654 243.404 142.701 238.049 141.631 235.755C141.019 234.531 139.642 233.001 133.219 234.531L131.842 233.307C138.572 231.777 143.772 231.93 144.843 234.378C146.372 238.508 136.583 245.393 126.642 249.676Z" stroke="#A1C7FF" stroke-miterlimit="10" stroke-linecap="round" stroke-linejoin="round"/>
<path d="M571.606 89.3853C572.895 79.4989 565.927 70.4393 556.043 69.1502C546.159 67.861 537.102 74.8305 535.813 84.7169C534.524 94.6033 541.492 103.663 551.376 104.952C561.26 106.241 570.317 99.2717 571.606 89.3853Z" stroke="#A1C7FF" stroke-miterlimit="10" stroke-linecap="round" stroke-linejoin="round"/>
<path d="M550.922 96.3825C535.933 91.9458 521.097 83.9905 522.779 77.8709C524.156 73.1283 535.321 73.4343 540.98 74.1992L539.298 76.1881C529.968 75.1172 528.133 77.412 527.521 79.4008C526.45 82.9195 534.557 89.498 551.534 94.5466C568.511 99.5952 578.912 98.3713 579.829 94.8526C580.441 92.8638 580.135 89.957 571.723 85.8263L571.264 83.3785C579.982 87.6622 585.489 92.8638 584.571 96.3825C582.735 102.196 565.758 100.819 550.922 96.3825Z" stroke="#A1C7FF" stroke-miterlimit="10" stroke-linecap="round" stroke-linejoin="round"/>
<path d="M497.849 177.619L481.483 186.645L471.083 185.422L487.448 176.395L497.849 177.619Z" stroke="#A1C7FF" stroke-miterlimit="10" stroke-linecap="round" stroke-linejoin="round"/>
<path d="M488.519 160.485L472.153 169.511L461.753 168.287L478.118 159.261L488.519 160.485Z" stroke="#A1C7FF" stroke-miterlimit="10" stroke-linecap="round" stroke-linejoin="round"/>
<path d="M488.519 160.484L497.849 177.619" stroke="#A1C7FF" stroke-miterlimit="10" stroke-linecap="round" stroke-linejoin="round"/>
<path d="M472 169.664L481.483 186.645" stroke="#A1C7FF" stroke-miterlimit="10" stroke-linecap="round" stroke-linejoin="round"/>
<path d="M461.6 168.44L471.083 185.422" stroke="#A1C7FF" stroke-miterlimit="10" stroke-linecap="round" stroke-linejoin="round"/>
<path d="M477.965 159.414L487.448 176.395" stroke="#A1C7FF" stroke-miterlimit="10" stroke-linecap="round" stroke-linejoin="round"/>
<path d="M638.868 224.586L639.327 213.112L648.045 220.456L659.057 217.243L654.927 227.799L661.351 237.284L649.88 236.673L642.844 245.699L640.091 234.684L629.232 230.706L638.868 224.586Z" stroke="#A1C7FF" stroke-miterlimit="10" stroke-linecap="round" stroke-linejoin="round"/>
<path d="M209.693 22.9482L216.27 16.3697L217.493 25.549L225.753 29.8327L217.34 33.8104L215.811 42.9897L209.387 36.2582L200.21 37.6351L204.646 29.5267L200.516 21.1124L209.693 22.9482Z" stroke="#A1C7FF" stroke-miterlimit="10" stroke-linecap="round" stroke-linejoin="round"/>
<path d="M123.889 87.0502L109.817 88.8861L91.3105 76.1881L103.546 73.5873L123.889 87.0502Z" stroke="#A1C7FF" stroke-miterlimit="10" stroke-linecap="round" stroke-linejoin="round"/>
<path d="M109.817 88.8861L120.371 61.3482L123.889 87.0502" stroke="#A1C7FF" stroke-miterlimit="10" stroke-linecap="round" stroke-linejoin="round"/>
<path d="M91.3105 76.1881L120.371 61.3482L103.546 73.5873" stroke="#A1C7FF" stroke-miterlimit="10" stroke-linecap="round" stroke-linejoin="round"/>
<path d="M96.3578 163.697C94.3695 163.697 92.5341 164.156 90.8517 164.921C91.0046 164.156 91.1576 163.391 91.1576 162.626C91.1576 157.119 86.722 152.682 81.2159 152.682C76.6274 152.682 72.9566 155.742 71.7331 159.873C71.2742 147.939 61.3325 138.301 49.2496 138.301C36.8607 138.301 26.7661 148.398 26.7661 160.79C26.7661 162.32 26.919 163.697 27.2249 165.074C24.3189 161.708 20.1893 159.567 15.4478 159.567C6.8827 159.567 0 166.451 0 175.018C0 183.586 6.8827 190.47 15.4478 190.47C24.013 190.47 89.0163 190.47 96.3578 190.47C103.699 190.47 109.817 184.504 109.817 177.007C109.817 169.664 103.852 163.697 96.3578 163.697Z" fill="#E1F1FF"/>
<path d="M695 382.317H14.989V383.847H695V382.317Z" fill="#A1C7FF"/>
<path d="M506.873 383.847V341.316H665.022C670.834 341.316 675.576 346.059 675.576 351.873V373.291C675.576 379.104 670.834 383.847 665.022 383.847H506.873Z" fill="#2F40DD"/>
<path opacity="0.55" d="M661.198 341.316H657.375C663.187 341.316 667.928 346.059 667.928 351.873V373.291C667.928 379.104 663.187 383.847 657.375 383.847H661.198C667.01 383.847 671.752 379.104 671.752 373.291V351.873C671.752 346.059 667.01 341.316 661.198 341.316Z" fill="#2F40DD"/>
<path opacity="0.55" d="M638.562 341.316H634.738C640.55 341.316 645.292 346.059 645.292 351.873V373.291C645.292 379.104 640.55 383.847 634.738 383.847H638.562C644.374 383.847 649.115 379.104 649.115 373.291V351.873C649.115 346.059 644.374 341.316 638.562 341.316Z" fill="#2F40DD"/>
<path d="M473.53 383.847V341.316H626.632C632.444 341.316 637.185 346.059 637.185 351.873V373.291C637.185 379.104 632.444 383.847 626.632 383.847H473.53Z" fill="#4A63FE"/>
<path d="M626.632 378.798H473.53V346.365H626.632C629.691 346.365 632.138 348.813 632.138 351.873V373.291C632.138 376.351 629.691 378.798 626.632 378.798Z" fill="#E9F1FF"/>
<path d="M632.138 354.626H484.389" stroke="#BBD8F9" stroke-miterlimit="10"/>
<path d="M632.138 362.582H575.241" stroke="#BBD8F9" stroke-miterlimit="10"/>
<path d="M632.138 370.078H491.578" stroke="#BBD8F9" stroke-miterlimit="10"/>
<path d="M567.594 362.582H510.849" stroke="#BBD8F9" stroke-miterlimit="10"/>
<path d="M487.601 341.316V298.786H645.75C651.563 298.786 656.304 303.528 656.304 309.342V330.76C656.304 336.574 651.563 341.316 645.75 341.316H487.601Z" fill="#FFAC06"/>
<path d="M641.927 298.786H638.103C643.915 298.786 648.656 303.528 648.656 309.342V330.76C648.656 336.574 643.915 341.316 638.103 341.316H641.927C647.739 341.316 652.48 336.574 652.48 330.76V309.342C652.48 303.528 647.739 298.786 641.927 298.786Z" fill="#FFCD2E"/>
<path d="M619.29 298.786H615.467C621.279 298.786 626.02 303.528 626.02 309.342V330.76C626.02 336.574 621.279 341.316 615.467 341.316H619.29C625.102 341.316 629.844 336.574 629.844 330.76V309.342C629.844 303.528 625.102 298.786 619.29 298.786Z" fill="#FFCD2E"/>
<path d="M454.258 341.316V298.786H607.36C613.172 298.786 617.914 303.528 617.914 309.342V330.76C617.914 336.574 613.172 341.316 607.36 341.316H454.258Z" fill="#FFCC5A"/>
<path d="M607.36 336.268H454.258V303.834H607.36C610.419 303.834 612.866 306.282 612.866 309.342V330.76C612.866 333.82 610.419 336.268 607.36 336.268Z" fill="#FFEAD7"/>
<path d="M612.866 312.096H465.118" stroke="#FFD19F" stroke-miterlimit="10"/>
<path d="M612.866 320.051H555.969" stroke="#FFD19F" stroke-miterlimit="10"/>
<path d="M612.866 327.547H472.306" stroke="#FFD19F" stroke-miterlimit="10"/>
<path d="M548.322 320.051H491.578" stroke="#FFD19F" stroke-miterlimit="10"/>
<path d="M586.253 367.477C586.406 367.477 586.406 367.324 586.253 367.324C586.1 367.171 586.1 367.477 586.253 367.477Z" fill="#FE881C"/>
<path d="M556.734 377.88L584.724 365.182L583.653 362.888L555.664 375.739L556.734 377.88Z" fill="#212237"/>
<path d="M575.394 355.391L578.147 354.932C578.147 354.932 580.441 357.686 581.818 359.675C583.194 361.664 583.653 363.041 583.653 363.041L555.664 375.892C555.664 375.892 555.817 374.056 560.711 367.171C562.699 364.418 563.158 362.123 563.158 362.123L575.394 355.391Z" fill="#4A63FE"/>
<path d="M574.017 345.294L577.994 354.779C577.994 354.779 577.535 356.768 572.641 358.91C567.899 361.052 562.852 361.817 562.852 361.817L555.358 347.436" fill="#FFCEB6"/>
<path d="M572.065 383.77L602.807 383.735L602.805 381.746L572.062 381.781L572.065 383.77Z" fill="#212237"/>
<path d="M598.336 370.996L600.936 371.608C600.936 371.608 602.007 375.127 602.313 377.575C602.772 380.022 602.619 381.705 602.619 381.705H571.876C571.876 381.705 572.641 379.716 579.982 375.433C582.888 373.75 584.418 371.761 584.418 371.761L598.336 370.996Z" fill="#4A63FE"/>
<path d="M601.242 361.358L600.936 371.608C600.936 371.608 599.713 373.138 594.36 373.138C589.159 373.138 584.265 371.761 584.265 371.761L583.347 355.544" fill="#FFCEB6"/>
<path d="M552.757 209.9C552.757 209.9 533.027 260.233 531.345 283.946C529.662 307.659 553.369 359.216 553.369 359.216L579.982 348.507C579.982 348.507 561.934 302.61 564.688 288.535C567.441 274.461 579.371 243.251 579.371 243.251L582.735 205.922" fill="#202263"/>
<path d="M600.325 213.265C608.431 228.564 605.831 285.629 605.066 304.446C604.301 323.111 606.137 366.1 606.137 366.1H575.853C575.853 366.1 570.652 319.592 568.817 296.185C567.288 275.837 563.311 240.803 565.758 217.549" fill="#202263"/>
<path d="M595.736 225.963C601.548 262.222 598.948 276.449 598.642 303.375C598.336 330.301 600.936 366.1 600.936 366.1" stroke="#4D59A3" stroke-width="0.5" stroke-miterlimit="10"/>
<path d="M575.241 360.287L605.678 359.828" stroke="#4D59A3" stroke-width="0.5" stroke-miterlimit="10"/>
<path d="M583.806 228.411C584.265 238.049 597.113 236.673 597.113 236.673" stroke="#4D59A3" stroke-width="0.5" stroke-miterlimit="10"/>
<path d="M564.382 228.87C563.311 248.912 566.676 279.05 566.676 279.05" stroke="#4D59A3" stroke-width="0.5" stroke-miterlimit="10"/>
<path d="M559.181 230.094C558.722 244.628 564.382 244.628 564.382 244.628" stroke="#4D59A3" stroke-width="0.5" stroke-miterlimit="10"/>
<path d="M552.91 230.247C550.922 236.214 544.039 234.531 544.039 234.531" stroke="#4D59A3" stroke-width="0.5" stroke-miterlimit="10"/>
<path d="M565.758 268.188C565.758 268.188 559.793 279.968 558.57 291.748C557.193 303.528 571.417 335.503 571.417 335.503" stroke="#4D59A3" stroke-width="0.5" stroke-miterlimit="10"/>
<path d="M551.075 353.402L573.253 344.835" stroke="#4D59A3" stroke-width="0.5" stroke-miterlimit="10"/>
<path d="M563.923 126.98C563.923 126.98 559.487 138.607 563.158 142.585C565.146 144.574 570.805 145.033 573.406 143.197C575.241 141.82 578.147 132.794 577.229 131.264C573.253 124.991 563.923 126.98 563.923 126.98Z" fill="#F2B18F"/>
<path d="M577.688 138.913L578.606 151.152C578.606 151.152 572.182 157.578 565.605 150.54L566.523 142.585L577.688 138.913Z" fill="#F2B18F"/>
<path d="M580.747 136.006C581.206 133.559 582.43 132.182 582.277 129.275C582.124 126.215 579.523 125.909 579.523 125.909C579.523 125.909 579.218 124.379 576.77 123.308C574.323 122.237 565.452 120.096 561.476 123.614C560.711 124.226 559.946 128.357 562.852 129.275C567.594 130.805 574.17 128.051 575.394 131.111C575.853 132.182 575.7 133.253 575.547 134.171C575.547 134.629 575.394 134.935 575.394 135.241L576.923 135.853C578.759 136.618 575.853 140.29 576.312 141.514C576.617 142.279 578.147 142.279 579.218 141.361C580.441 140.596 580.288 138.76 580.747 136.006Z" fill="#212237"/>
<path d="M576.159 136.159C577.382 134.324 578.453 134.476 579.065 135.394C579.982 136.618 578.606 139.219 577.994 139.678C576.618 140.749 575.394 140.749 575.241 139.525" fill="#F2B18F"/>
<path d="M578.606 150.999C578.606 150.999 575.853 152.988 571.417 152.988C566.982 152.988 565.605 150.387 565.605 150.387C565.605 150.387 548.016 150.846 539.298 159.261C529.662 168.44 520.332 187.716 527.827 200.108C535.321 212.653 556.275 197.049 556.275 197.049" fill="#4A63FE"/>
<path d="M559.793 153.753C546.181 149.928 544.957 226.116 544.957 226.116C553.675 231.624 605.984 229.788 605.984 229.788C605.984 229.788 611.031 185.575 594.971 159.108C591.759 153.906 578.759 150.846 578.759 150.846C578.759 150.846 569.276 156.507 559.793 153.753Z" fill="#4A63FE"/>
<path d="M525.838 145.033L543.275 141.667L556.122 215.101C556.122 215.101 554.746 218.62 549.393 219.691C543.886 220.762 540.675 218.161 540.675 218.161L525.838 145.033Z" fill="#FFD9C0"/>
<path d="M532.109 137.077C532.109 137.077 540.827 135.7 542.969 140.29C544.957 144.88 540.216 147.48 536.239 148.551C532.262 149.622 524.615 149.316 525.991 143.656C527.215 138.76 535.321 138.76 537.157 140.137C538.992 141.514 539.145 144.727 533.945 145.492C528.744 146.257 530.58 141.82 533.333 141.667" fill="#FFC088"/>
<path d="M530.886 144.574C530.886 144.574 532.568 146.869 536.086 145.186C539.604 143.503 539.757 137.383 530.886 139.678C522.015 141.973 525.533 149.622 531.804 149.163L530.886 144.574Z" fill="#FFAF5F"/>
<path d="M533.792 145.645L533.027 141.361C533.027 141.361 530.427 142.432 530.58 143.962C530.733 145.951 533.792 145.645 533.792 145.645Z" fill="#F78D37"/>
<path d="M530.58 144.115L531.498 149.01C535.78 149.163 539.451 147.327 539.451 147.327L538.38 141.667C538.38 141.667 538.686 144.421 535.168 145.339C531.651 146.257 530.58 144.115 530.58 144.115Z" fill="#FFCDA4"/>
<path d="M547.71 150.54L560.405 150.081L561.934 213.877C561.934 213.877 560.711 216.631 556.734 216.784C552.758 216.937 550.769 214.336 550.769 214.336L547.71 150.54Z" fill="#FFEAD7"/>
<path d="M553.065 144.574C553.065 144.574 559.489 144.574 560.406 148.704C561.324 152.835 557.806 154.518 554.747 154.824C551.841 155.13 546.488 153.906 548.018 149.316C549.394 145.339 555.053 146.41 556.277 147.786C557.5 149.163 557.194 151.917 553.524 151.917C549.7 151.764 551.535 148.398 553.524 148.551" fill="#FFC088"/>
<path d="M551.381 150.693C551.381 150.693 552.452 152.835 555.052 151.917C557.652 150.999 558.417 145.798 551.993 146.563C545.416 147.328 547.251 154.365 551.687 154.824L551.381 150.693Z" fill="#FFAF5F"/>
<path d="M553.369 152.223L553.216 148.398C553.216 148.398 551.228 148.857 551.228 150.234C551.075 151.917 553.369 152.223 553.369 152.223Z" fill="#F78D37"/>
<path d="M551.228 150.387L551.381 154.671C554.287 155.436 557.193 154.212 557.193 154.212L557.04 149.316C557.04 149.316 556.887 151.611 554.44 151.917C551.84 152.376 551.228 150.387 551.228 150.387Z" fill="#FFCDA4"/>
<path d="M573.253 151.305L588.548 156.354L567.747 216.784C567.747 216.784 565.299 218.773 560.405 217.243C555.664 215.713 554.134 212.347 554.134 212.347L573.253 151.305Z" fill="#FFD9C0"/>
<path d="M581.665 148.092C581.665 148.092 589.312 150.846 589.006 155.13C588.7 159.414 583.806 159.414 580.135 158.343C576.465 157.425 570.5 153.906 574.017 150.234C577.076 147.175 583.5 150.54 584.418 152.376C585.336 154.212 584.112 156.66 579.677 154.977C575.241 153.294 578.606 150.693 580.747 151.764" fill="#FFC088"/>
<path d="M577.535 153.141C577.535 153.141 577.994 155.589 581.512 155.742C585.03 156.048 587.783 151.458 579.676 149.316C571.57 147.327 571.264 154.518 576.312 156.813L577.535 153.141Z" fill="#FFAF5F"/>
<path d="M579.371 155.283L580.594 151.764C580.594 151.764 577.994 151.305 577.535 152.682C576.771 154.059 579.371 155.283 579.371 155.283Z" fill="#F78D37"/>
<path d="M577.382 152.682L576.006 156.813C579.218 158.802 583.041 158.955 583.041 158.955L584.571 154.212C584.571 154.212 583.653 156.354 580.441 155.589C577.382 154.671 577.382 152.682 577.382 152.682Z" fill="#FFCDA4"/>
<path d="M559.334 180.373C561.017 178.996 567.746 173.794 568.052 174.253C568.358 174.712 566.217 177.007 566.37 177.16C566.829 177.313 568.817 175.936 569.888 175.018C570.805 174.253 572.488 173.029 572.947 173.488C573.711 174.253 568.511 178.537 568.511 178.537C568.817 178.69 573.253 172.877 574.017 173.335C575.088 174.1 569.735 179.914 569.735 180.373C569.735 180.373 572.947 174.1 573.711 174.559C574.476 175.171 571.723 180.832 570.347 182.209C571.264 180.985 572.794 175.936 573.253 176.395C573.864 176.854 572.029 180.832 571.723 181.291C568.511 185.575 564.688 188.328 564.688 188.328" fill="#F2B18F"/>
<path d="M529.815 184.504C541.439 184.198 563.311 174.406 563.311 174.406L572.029 186.645C572.029 186.645 552.299 204.086 534.862 204.851L529.815 184.504Z" fill="#4A63FE"/>
<path d="M561.017 194.601L572.029 186.645L563.311 174.406C563.311 174.406 547.098 182.056 532.109 184.198" stroke="#6E94FF" stroke-width="0.5" stroke-miterlimit="10"/>
<path d="M555.052 212.347C552.91 212.194 543.428 211.276 543.275 211.888C543.275 212.5 546.334 213.265 546.181 213.418C545.875 213.724 543.428 213.724 542.051 213.571C540.827 213.418 538.839 213.418 538.686 213.877C538.38 214.948 545.11 215.713 545.11 215.713C544.957 216.019 538.074 213.571 537.769 214.336C537.31 215.56 544.957 217.549 545.11 217.855C545.11 217.855 538.992 214.183 538.686 215.101C538.38 216.019 543.734 219.385 545.569 219.691C544.192 219.079 540.216 215.713 539.91 216.325C539.604 216.937 543.275 219.385 543.886 219.691C548.934 221.527 553.981 221.68 553.981 221.68" fill="#F2B18F"/>
<path d="M587.63 223.822C597.572 218.008 607.054 202.403 608.125 186.645C608.89 176.395 601.854 163.085 593.136 157.272" fill="#4A63FE"/>
<path d="M577.229 203.627C577.229 203.627 565.605 208.829 550.157 211.429L547.863 229.635C555.205 230.247 575.088 230.247 588.701 223.21" fill="#4A63FE"/>
<path d="M564.993 229.482C564.993 229.482 582.43 227.034 588.7 223.363C599.101 217.243 603.384 205.004 603.384 205.004" stroke="#6E94FF" stroke-width="0.5" stroke-miterlimit="10"/>
<path d="M550.004 211.582C550.004 211.582 569.123 208.37 578.606 203.015C586.1 198.731 587.63 177.772 587.63 177.772" stroke="#6E94FF" stroke-width="0.5" stroke-miterlimit="10"/>
<path d="M421.68 311.025C420.763 311.025 419.998 310.413 419.692 309.495L412.197 280.733C412.045 280.121 412.197 279.509 412.503 278.897C412.962 278.438 413.421 278.132 414.186 278.132H450.588C451.505 278.132 452.27 278.744 452.576 279.662L460.07 308.424C460.223 309.036 460.07 309.648 459.765 310.26C459.306 310.719 458.847 311.025 458.082 311.025H421.68Z" fill="#4A63FE"/>
<path d="M458.082 309.495H421.68C421.374 309.495 421.221 309.342 421.068 309.036L413.574 280.274C413.421 279.968 413.727 279.509 414.186 279.509H450.588C450.894 279.509 451.046 279.662 451.199 279.968L458.694 308.73C458.847 309.189 458.541 309.495 458.082 309.495Z" fill="#C7E2FF"/>
<path d="M447.223 300.01H421.833L417.398 283.487H442.787L447.223 300.01Z" fill="#C7E2FF"/>
<path d="M448.14 298.327H422.751L418.468 281.957H443.858L448.14 298.327Z" fill="#F0F8FF"/>
<g opacity="0.35">
<g opacity="0.35">
<path opacity="0.35" d="M450.588 284.558H417.704V285.782H450.588V284.558Z" fill="#A4D0FF"/>
</g>
<g opacity="0.35">
<path opacity="0.35" d="M450.588 287.924H417.704V289.147H450.588V287.924Z" fill="#A4D0FF"/>
</g>
<g opacity="0.35">
<path opacity="0.35" d="M450.588 291.289H417.704V292.513H450.588V291.289Z" fill="#A4D0FF"/>
</g>
<g opacity="0.35">
<path opacity="0.35" d="M450.588 294.502H417.704V295.726H450.588V294.502Z" fill="#A4D0FF"/>
</g>
</g>
<path d="M453.494 307.812H429.328L425.198 292.207H449.364L453.494 307.812Z" fill="#C7E2FF"/>
<path d="M454.411 306.282H430.245L426.116 290.677H450.282L454.411 306.282Z" fill="#F0F8FF"/>
<path d="M456.706 293.125H425.351V294.196H456.706V293.125Z" fill="#C7E2FF"/>
<path d="M456.706 296.338H425.351V297.409H456.706V296.338Z" fill="#C7E2FF"/>
<path d="M456.706 299.398H425.351V300.469H456.706V299.398Z" fill="#C7E2FF"/>
<path d="M456.706 302.61H425.351V303.681H456.706V302.61Z" fill="#C7E2FF"/>
<path d="M319.703 352.289L322.9 382.873L324.269 382.73L321.072 352.146L319.703 352.289Z" fill="#FF7D12"/>
<path d="M335.111 377.269L334.805 380.022C334.805 380.022 331.44 381.399 329.146 382.011C326.699 382.623 324.405 382.776 324.405 382.776L321.193 352.178C321.193 352.178 323.946 352.637 328.993 359.522C330.982 362.276 333.123 363.5 333.123 363.5L335.111 377.269Z" fill="#2E53ED"/>
<path d="M357.136 378.492L334.805 380.022C334.805 380.022 333.123 378.951 332.511 373.75C331.899 368.548 332.817 363.653 332.817 363.653L355.147 362.276" fill="#F2B18F"/>
<path d="M489.131 383.235C473.989 383.847 449.517 383.847 425.198 383.847C385.737 383.694 346.429 383.235 346.429 383.235L343.523 359.675C343.523 359.675 380.69 355.85 416.327 350.955C451.352 346.059 485.46 353.249 485.46 353.249" fill="#091E89"/>
<path d="M345.359 374.515H465.882" stroke="#2058BC" stroke-width="0.5" stroke-miterlimit="10"/>
<path d="M337.118 357.962L355.179 382.849L356.293 382.04L338.232 357.153L337.118 357.962Z" fill="#FF7D12"/>
<path d="M362.948 371.914L364.018 374.515C364.018 374.515 361.724 377.422 360.042 379.104C358.359 380.787 356.371 382.164 356.371 382.164L338.323 357.227C338.323 357.227 340.923 356.309 348.724 359.675C351.783 361.052 354.23 361.052 354.23 361.052L362.948 371.914Z" fill="#2E53ED"/>
<path d="M377.937 368.242L364.018 374.515C364.018 374.515 362.03 374.362 358.971 370.078C355.912 365.794 354.23 361.052 354.23 361.052L376.407 350.802" fill="#F2B18F"/>
<path d="M510.544 337.186C510.544 337.186 523.544 383.235 490.813 383.235C458.082 383.235 436.669 360.746 432.081 360.134C427.492 359.522 377.937 378.798 377.937 378.798L363.407 356.309C363.407 356.309 403.02 335.809 418.468 332.749C433.916 329.536 475.518 339.786 475.518 339.786" fill="#103BB2"/>
<path d="M495.555 340.704C495.555 340.704 499.684 363.806 491.425 370.384C479.801 379.563 438.505 352.178 431.469 352.178C424.586 352.178 373.348 372.22 373.348 372.22" stroke="#4873D3" stroke-width="0.5" stroke-miterlimit="10"/>
<path d="M482.095 340.092C481.942 351.108 496.166 350.955 496.166 350.955" stroke="#4873D3" stroke-width="0.5" stroke-miterlimit="10"/>
<path d="M368.913 354.626L382.372 377.116" stroke="#4873D3" stroke-width="0.5" stroke-miterlimit="10"/>
<path fill-rule="evenodd" clip-rule="evenodd" d="M474.753 250.441C473.071 256.255 473.071 261.61 477.965 262.986C482.86 264.516 490.048 264.057 492.496 255.796C494.331 249.982 491.731 244.169 486.836 242.639C481.942 241.262 476.589 244.628 474.753 250.441Z" fill="#F2B18F"/>
<path fill-rule="evenodd" clip-rule="evenodd" d="M480.26 268.8C480.26 268.8 483.472 270.33 487.295 269.718C491.731 269.106 492.649 267.423 492.649 267.423L488.978 255.031L479.189 257.938L480.26 268.8Z" fill="#F2B18F"/>
<path fill-rule="evenodd" clip-rule="evenodd" d="M475.824 250.441C475.824 250.441 472.765 253.807 472.918 254.419C472.918 255.031 474.753 255.643 474.753 255.643" fill="#F2B18F"/>
<path d="M485.919 254.878C482.554 253.348 480.26 249.677 480.566 245.852C478.883 247.076 477.354 247.535 475.365 247.076C477.66 242.639 482.554 239.579 487.601 240.497C490.507 240.956 492.954 242.486 494.484 244.934C497.084 248.606 497.084 250.747 498.308 255.031C498.766 256.561 499.837 259.927 501.673 260.998C499.378 262.833 491.731 266.046 482.095 263.904C485.001 261.304 486.531 257.326 486.072 253.501" fill="#22252D"/>
<path d="M484.389 253.501C484.389 253.501 485.613 252.124 486.989 253.348C488.825 254.878 486.225 258.244 484.848 258.703C483.319 259.162 483.013 257.632 483.013 257.632" fill="#F2B18F"/>
<path d="M430.092 305.67C428.104 304.752 419.386 300.774 419.233 301.233C419.08 301.692 421.68 303.528 421.527 303.681C421.221 303.987 418.927 303.069 417.704 302.457C416.633 301.845 414.798 301.233 414.492 301.539C413.88 302.457 419.998 305.364 419.998 305.364C419.845 305.67 414.033 300.927 413.574 301.539C412.809 302.457 419.233 307.047 419.233 307.353C419.233 307.353 414.798 301.845 414.186 302.61C413.574 303.375 417.551 308.271 419.08 309.342C417.857 308.271 415.256 303.834 414.798 304.293C414.339 304.752 416.939 308.271 417.398 308.73C421.527 312.249 426.269 314.084 426.269 314.084" fill="#F2B18F"/>
<path d="M481.789 302.763C481.789 302.763 477.201 328.159 462.671 330.454C444.929 333.361 419.692 318.062 419.692 318.062L426.728 303.987C443.399 308.577 453.341 308.73 455.941 306.282C458.541 303.834 461.447 288.382 468.636 278.132C475.824 267.882 480.26 268.188 480.26 268.188C480.26 268.188 481.789 269.718 486.072 269.565C490.507 269.412 492.649 267.423 492.649 267.423C492.649 267.423 499.684 269.106 506.72 282.11C513.908 295.114 511.92 340.092 511.92 340.092C511.92 340.092 486.072 345.294 460.223 336.115C460.223 336.115 459.306 293.737 465.577 284.405" fill="#FF7D12"/>
<path d="M460.223 330.76C479.189 327.7 483.013 294.961 483.013 294.961" stroke="#BA4A13" stroke-width="0.5" stroke-miterlimit="10"/>
<path d="M155.549 290.218L172.221 304.293L120.065 363.194C120.065 363.194 116.088 364.112 110.888 359.828C105.688 355.391 105.382 350.802 105.382 350.802L155.549 290.218Z" fill="#FFD9C0"/>
<path d="M167.326 291.136C167.326 291.136 175.585 298.48 173.291 303.222C171.15 307.965 165.185 305.211 161.055 302.151C157.079 299.092 151.114 291.748 156.926 289.606C161.973 287.618 168.397 295.114 168.856 297.715C169.162 300.316 166.714 302.457 161.82 298.174C157.079 293.737 162.279 292.666 164.573 295.114" fill="#FFC088"/>
<path d="M159.985 294.655C159.985 294.655 159.526 297.715 163.655 299.857C167.785 301.998 173.138 298.327 164.114 291.595C155.09 284.864 151.572 292.972 156.926 298.327L159.985 294.655Z" fill="#FFAF5F"/>
<path d="M161.361 298.174L164.267 294.655C164.267 294.655 161.361 292.819 160.138 294.043C158.761 295.42 161.361 298.174 161.361 298.174Z" fill="#F78D37"/>
<path d="M160.138 294.043L156.773 298.021C159.985 301.998 164.573 304.293 164.573 304.293L168.397 299.704C168.397 299.704 166.255 301.692 162.891 299.092C159.22 296.491 160.138 294.043 160.138 294.043Z" fill="#FFD19F"/>
<path d="M32.5781 313.473L53.0733 298.327L96.8167 360.746C96.8167 360.746 96.9696 365.641 90.5458 370.384C84.1219 375.127 78.6158 374.056 78.6158 374.056L32.5781 313.473Z" fill="#FFEAD7"/>
<path d="M36.5548 300.163C36.5548 300.163 47.1083 292.819 52.0027 296.797C56.897 300.775 52.3086 306.894 47.7201 310.719C43.1316 314.543 33.19 318.98 32.1193 311.637C31.2016 305.211 41.4492 300.01 44.5082 300.316C47.5672 300.775 49.5555 304.293 43.1316 308.577C36.8607 312.861 37.0137 306.435 40.3786 304.446" fill="#FFC088"/>
<path d="M38.6961 309.648C38.6961 309.648 42.061 311.025 45.5788 306.894C49.0966 302.763 46.1906 295.42 36.096 303.834C26.0013 312.249 34.4135 318.827 42.061 314.237L38.6961 309.648Z" fill="#FFAF5F"/>
<path d="M43.1316 309.189L39.9197 304.752C39.9197 304.752 37.0136 307.659 38.0843 309.342C39.4608 311.331 43.1316 309.189 43.1316 309.189Z" fill="#F78D37"/>
<path d="M38.2372 309.342L41.908 314.543C47.4142 312.096 51.085 307.506 51.085 307.506L46.8024 301.692C46.8024 301.692 48.4848 304.752 44.6611 307.965C40.6844 311.025 38.2372 309.342 38.2372 309.342Z" fill="#FFD19F"/>
<path d="M72.192 303.987L74.6391 314.39L70.8154 318.368L65.1563 316.532L62.7091 306.129C60.2619 308.424 59.0383 311.943 59.8031 315.461C61.0267 320.663 66.2269 324.029 71.5802 322.805C76.7804 321.581 80.1453 316.379 78.9217 311.025C78.004 307.506 75.4039 304.905 72.192 303.987Z" fill="#B8DAFF"/>
<path d="M75.8725 320.095L66.4863 322.273L75.7501 362.212L85.1363 360.034L75.8725 320.095Z" fill="#B8DAFF"/>
<path d="M79.6864 358.145C74.4862 359.369 71.1213 364.571 72.3449 369.925C73.5685 375.127 78.7687 378.492 84.1219 377.269C89.3222 376.045 92.6871 370.843 91.4635 365.488C90.2399 360.134 85.0396 356.921 79.6864 358.145ZM87.3339 369.313L83.2042 373.138L77.851 371.455L76.6274 365.947L80.7571 362.123L86.1103 363.806L87.3339 369.313Z" fill="#6486F2"/>
<path d="M76.0156 379.563L79.2276 368.548L84.8867 366.712L89.1693 371.302L85.9573 382.317C89.4752 381.399 92.5341 378.798 93.6048 374.974C95.1343 369.313 91.9223 363.5 86.4162 361.97C80.7571 360.44 74.945 363.653 73.4155 369.16C72.3449 372.985 73.4155 376.963 76.0156 379.563Z" fill="#6486F2"/>
<path d="M93.1661 319.689L80.9596 362.343L90.9587 365.206L103.165 322.552L93.1661 319.689Z" fill="#A1C7FF"/>
<path d="M97.2755 324.335C102.935 325.865 108.747 322.652 110.276 317.144C111.806 311.484 108.594 305.67 103.088 304.14C97.4285 302.61 91.6164 305.823 90.0869 311.331C88.4045 316.838 91.6164 322.652 97.2755 324.335ZM95.899 309.801L101.864 308.271L106.147 312.708L104.464 318.521L98.4991 320.051L94.2166 315.614L95.899 309.801Z" fill="#A1C7FF"/>
<path d="M124.042 282.875L146.678 294.655L105.076 371.149C105.076 371.149 100.488 373.903 93.4519 370.231C86.4162 366.559 85.1926 360.746 85.1926 360.746L124.042 282.875Z" fill="#FFEAD7"/>
<path d="M138.266 279.509C138.266 279.509 149.431 285.782 147.749 292.819C145.913 299.857 138.266 298.633 132.913 296.185C127.407 293.737 119.147 286.547 125.724 281.498C131.383 277.061 140.56 284.252 141.478 287.312C142.396 290.524 139.642 294.349 133.219 290.524C126.642 286.7 132.76 283.334 135.972 285.629" fill="#FFC088"/>
<path d="M130.16 286.7C130.16 286.7 130.16 290.677 135.513 291.901C140.866 293.125 146.525 286.241 134.595 281.039C122.512 275.837 119.759 287.618 127.101 292.513L130.16 286.7Z" fill="#FFAF5F"/>
<path d="M132.454 290.677L135.36 285.017C135.36 285.017 131.536 283.793 130.313 285.782C128.783 288.229 132.454 290.677 132.454 290.677Z" fill="#F78D37"/>
<path d="M130.16 286.088L126.795 292.513C131.383 296.491 137.195 297.562 137.195 297.562L141.019 290.218C141.019 290.218 138.878 293.584 134.289 291.442C129.548 289.453 130.16 286.088 130.16 286.088Z" fill="#FFD19F"/>
<path d="M120.983 336.421H41.6021V383.847H120.983V336.421Z" fill="#FFAC06"/>
<path d="M163.502 336.421H120.065V383.847H163.502V336.421Z" fill="#FF8F08"/>
<path d="M103.088 359.369H24.166L41.1433 336.421H120.065L103.088 359.369Z" fill="#FFD8BD"/>
<path d="M129.854 359.369H173.444L163.502 336.421H119.912L129.854 359.369Z" fill="#FFC69F"/>
<path d="M195.163 383.847L214.281 216.172" stroke="#254BB7" stroke-miterlimit="10"/>
<path d="M141.478 383.847L160.596 216.172" stroke="#254BB7" stroke-miterlimit="10"/>
<path d="M144.384 360.134H197.916" stroke="#254BB7" stroke-miterlimit="10"/>
<path d="M146.831 339.48H200.21" stroke="#254BB7" stroke-miterlimit="10"/>
<path d="M148.819 318.521H202.199" stroke="#254BB7" stroke-miterlimit="10"/>
<path d="M151.114 298.327H204.34" stroke="#254BB7" stroke-miterlimit="10"/>
<path d="M153.561 277.367H207.093" stroke="#254BB7" stroke-miterlimit="10"/>
<path d="M156.008 256.561H209.081" stroke="#254BB7" stroke-miterlimit="10"/>
<path d="M158.608 236.826H211.834" stroke="#254BB7" stroke-miterlimit="10"/>
<path d="M179.715 383.847L160.596 216.172" stroke="#254BB7" stroke-miterlimit="10"/>
<path d="M233.4 383.847L214.281 216.172" stroke="#254BB7" stroke-miterlimit="10"/>
<path d="M230.494 360.134H176.962" stroke="#254BB7" stroke-miterlimit="10"/>
<path d="M228.047 339.48H174.668" stroke="#254BB7" stroke-miterlimit="10"/>
<path d="M225.906 318.521H172.679" stroke="#254BB7" stroke-miterlimit="10"/>
<path d="M223.611 298.327H170.538" stroke="#254BB7" stroke-miterlimit="10"/>
<path d="M221.164 277.367H167.785" stroke="#254BB7" stroke-miterlimit="10"/>
<path d="M218.87 256.561H165.797" stroke="#254BB7" stroke-miterlimit="10"/>
<path d="M216.27 236.826H162.891" stroke="#254BB7" stroke-miterlimit="10"/>
<path d="M221.776 212.347H152.49V217.243H221.776V212.347Z" fill="#254BB7"/>
<path d="M261.084 128.204L242.118 164.309H191.798V159.72H240.895L258.484 126.521L261.084 128.204Z" fill="#202263"/>
<path fill-rule="evenodd" clip-rule="evenodd" d="M195.622 89.957C195.928 96.0765 194.551 101.278 189.351 101.431C184.151 101.584 177.421 99.4422 176.962 90.7219C176.656 84.6024 180.633 79.5538 185.833 79.4008C190.88 79.2478 195.316 83.9904 195.622 89.957Z" fill="#F2B18F"/>
<path fill-rule="evenodd" clip-rule="evenodd" d="M185.68 106.48C185.68 106.48 182.315 106.633 178.644 105.256C174.362 103.573 173.903 102.043 173.903 102.043L180.633 90.8749L189.504 96.2295L185.68 106.48Z" fill="#F2B18F"/>
<path fill-rule="evenodd" clip-rule="evenodd" d="M194.551 89.651C194.551 89.651 196.692 93.6287 196.386 94.3936C196.233 95.0056 194.245 95.1586 194.245 95.1586" fill="#F2B18F"/>
<path d="M182.468 90.5689C183.233 92.0988 185.527 93.1697 186.445 90.4159C187.362 87.6622 186.904 86.8972 188.433 86.5912C190.116 86.2853 189.657 87.5092 195.775 87.9681C199.292 88.2741 200.975 85.5203 200.669 83.5315C200.363 82.3076 199.751 80.6247 197.457 80.1657C194.245 79.5538 195.316 80.3187 193.174 79.5538C191.186 78.9418 190.268 77.106 187.057 76.953C183.845 76.8 182.009 79.4008 182.009 79.4008C182.009 79.4008 179.409 78.1769 177.268 81.0837C175.279 83.8375 176.503 84.9084 175.279 87.8151C174.209 90.263 174.974 94.3936 176.197 95.6175C179.409 98.8303 182.621 95.7705 182.621 95.7705C182.621 95.7705 179.256 90.263 181.703 90.4159" fill="#212237"/>
<path d="M183.692 90.7219C183.692 90.7219 182.774 89.039 181.244 89.804C179.103 90.8749 180.786 94.6996 182.009 95.6175C183.386 96.5355 184.151 95.0056 184.151 95.0056" fill="#F2B18F"/>
<path d="M253.701 288.847L223.176 285.187L223.013 286.555L253.537 290.214L253.701 288.847Z" fill="#103BB2"/>
<path d="M228.965 274.461L226.211 274.767C226.211 274.767 224.835 278.132 224.07 280.427C223.458 282.722 223.152 285.17 223.152 285.17L253.742 288.841C253.742 288.841 253.283 286.088 246.401 280.886C243.801 278.897 242.424 276.755 242.424 276.755L228.965 274.461Z" fill="#22252D"/>
<path d="M222.235 253.654L226.211 274.767C226.211 274.767 227.282 276.449 232.482 277.061C237.683 277.673 242.577 276.908 242.577 276.908L240.13 249.982" fill="#F2B18F"/>
<path d="M244.412 199.19L249.154 270.177L221.164 273.849L215.658 211.124" fill="#141744"/>
<path d="M221.011 268.647L247.777 265.128" stroke="#4D59A3" stroke-width="0.5" stroke-miterlimit="10"/>
<path d="M221.103 280.99L193.194 268.09L192.617 269.34L220.525 282.24L221.103 280.99Z" fill="#103BB2"/>
<path d="M201.893 259.621L199.14 259.009C199.14 259.009 196.692 261.763 195.316 263.751C193.939 265.74 193.022 268.035 193.022 268.035L221.011 280.886C221.011 280.886 221.47 278.132 216.576 271.095C214.587 268.341 214.129 265.893 214.129 265.893L201.893 259.621Z" fill="#22252D"/>
<path d="M203.269 251.512L199.14 259.009C199.14 259.009 199.598 260.998 204.34 263.139C209.081 265.281 213.976 266.046 213.976 266.046L222.388 253.195" fill="#F2B18F"/>
<path d="M151.878 166.145C151.878 166.145 143.313 212.194 165.797 212.194C183.386 212.194 203.728 212.5 211.834 212.653C213.517 212.653 214.74 214.489 214.281 216.019L201.434 253.654L228.659 265.587C228.659 265.587 250.836 215.56 248.389 196.743C245.942 177.925 183.539 175.477 183.539 175.477L177.115 163.238" fill="#202263"/>
<path d="M163.196 171.959C163.196 171.959 158.608 197.202 170.385 201.026C182.162 204.698 209.999 205.157 218.411 207.146C221.623 207.911 223.611 211.124 222.847 214.336L207.705 256.714" stroke="#4D59A3" stroke-width="0.5" stroke-miterlimit="10"/>
<path d="M180.48 175.171C179.409 183.586 162.432 186.645 162.432 186.645" stroke="#4D59A3" stroke-width="0.5" stroke-miterlimit="10"/>
<path d="M202.963 249.218L230.494 261.457" stroke="#4D59A3" stroke-width="0.5" stroke-miterlimit="10"/>
<path d="M229.576 162.932C231.718 162.779 241.353 162.32 241.353 162.932C241.353 163.544 238.142 164.156 238.294 164.462C238.6 164.921 241.048 164.921 242.424 164.768C243.648 164.615 245.636 164.615 245.789 165.227C245.942 166.298 239.212 166.757 239.212 166.757C239.212 167.063 246.401 164.768 246.707 165.686C247.166 166.91 239.518 168.593 239.212 169.052C239.212 169.052 245.483 165.686 245.789 166.604C246.095 167.522 240.589 170.582 238.753 171.041C240.283 170.429 244.259 167.216 244.565 167.981C244.718 168.593 241.048 170.888 240.436 171.194C235.235 172.877 230.188 172.877 230.188 172.877" fill="#F2B18F"/>
<path d="M187.515 122.696C187.515 143.044 190.421 150.234 197.61 154.671C204.952 159.108 221.317 160.484 231.259 161.402L230.035 177.007C230.035 177.007 191.951 176.242 182.315 170.888C172.526 165.533 171.15 136.312 171.15 136.312" fill="#4A63FE"/>
<path d="M185.833 106.021C195.622 115.659 199.598 177.007 199.598 177.007C176.044 178.231 143.16 178.537 143.16 178.537C143.16 178.537 146.066 133.559 154.784 119.484C162.585 106.939 174.056 101.431 174.056 101.431C174.056 101.431 176.197 104.338 179.868 105.103C183.386 106.174 185.833 106.021 185.833 106.021Z" fill="#4A63FE"/>
<path d="M199.14 155.436C187.974 151.152 188.28 127.286 188.28 127.286" stroke="#1C38AD" stroke-width="0.5" stroke-miterlimit="10"/>
<path d="M199.445 174.865C199.445 174.865 182.927 174.865 175.279 160.637C167.632 146.563 166.408 130.499 166.408 130.499" stroke="#1C38AD" stroke-width="0.5" stroke-miterlimit="10"/>
</svg>
