<svg xmlns="http://www.w3.org/2000/svg" width="255.193" height="377.074" viewBox="0 0 255.193 377.074"><defs><style>.a{fill:#3f3d56;}.b{fill:#4a63fe;}.c{fill:#ffac06;}.d{fill:#e6e6e6;}.e{fill:#ff7d12;}.f{fill:#fff;}</style></defs><g transform="translate(0)"><path class="a" d="M151.4,500h42.009a16.583,16.583,0,0,1-16.583,16.583h-8.844A16.583,16.583,0,0,1,151.4,500h0Z" transform="translate(-42.245 -139.509)"/><path class="b" d="M447.039,419.883v-15.41c0-18.62,20.251-36.233,33.389-48.8,18.518-17.7,28.252-41.485,28.252-69.345a92.461,92.461,0,1,0-184.921-.514q0,.257,0,.514c0,26.865,10.151,52.259,28.252,69.345,13.066,12.335,33.389,29.986,33.389,48.8v15.41" transform="translate(-286.054 -96.519)"/><path class="a" d="M446.2,421.308a2.163,2.163,0,0,1-2.163-2.163v-15.41c0-18.115,17.865-35.025,30.91-47.373,1.083-1.025,2.135-2.021,3.146-2.988,18.046-17.251,27.584-40.69,27.584-67.783,0-50.634-39.663-90.3-90.3-90.3h-.255a90.145,90.145,0,0,0-90.043,89.79v.5c0,26.533,10.05,51.235,27.574,67.777.888.839,1.81,1.7,2.757,2.587,13.214,12.371,31.31,29.314,31.31,47.783v15.41a2.163,2.163,0,1,1-4.326,0v-15.41c0-16.593-17.305-32.795-29.941-44.626-.951-.89-1.877-1.757-2.77-2.6-18.385-17.356-28.93-43.2-28.93-70.919v-.519a94.48,94.48,0,0,1,94.362-94.105h.267a94.13,94.13,0,0,1,94.617,94.624c0,28.3-10,52.822-28.92,70.909-1.016.971-2.074,1.973-3.162,3-12.474,11.808-29.558,27.978-29.558,44.231v15.41a2.163,2.163,0,0,1-2.163,2.163Z" transform="translate(-285.217 -95.781)"/><path class="c" d="M463.2,546.155H422.107a3.6,3.6,0,0,1,0-7.21H463.2a3.6,3.6,0,1,1,0,7.21Z" transform="translate(-312.489 -192.873)"/><path class="d" d="M306.024,191.1a3.59,3.59,0,0,1-2.369-.889L272.7,163.19a3.6,3.6,0,1,1,4.741-5.431L308.4,184.782a3.6,3.6,0,0,1-2.372,6.321Z" transform="translate(-271.462 -86.268)"/><path class="d" d="M576.082,191.1a3.6,3.6,0,0,1-2.372-6.321l30.958-27.023a3.6,3.6,0,1,1,4.741,5.431l-30.958,27.023A3.59,3.59,0,0,1,576.082,191.1Z" transform="translate(-355.451 -86.267)"/><path class="e" d="M469.5,528.408h-61.64a3.6,3.6,0,1,1,0-7.21H469.5a3.6,3.6,0,1,1,0,7.21Z" transform="translate(-308.513 -187.922)"/><path class="f" d="M450.606,477.853a3.6,3.6,0,0,1-3.6-3.605V392.061a3.6,3.6,0,1,1,7.21,0v82.187a3.6,3.6,0,0,1-3.6,3.6Z" transform="translate(-320.441 -150.884)"/><path class="f" d="M441.163,391.69c-11.648,0-25.948-10.537-26.551-10.986a3.6,3.6,0,0,1,4.3-5.785c3.583,2.658,14.568,9.561,22.248,9.561s18.665-6.9,22.249-9.562a3.6,3.6,0,1,1,4.3,5.786C467.111,381.153,452.811,391.69,441.163,391.69Z" transform="translate(-310.998 -146.908)"/><path class="d" d="M450.605,127.8a3.605,3.605,0,0,1-3.6-3.6V62.55a3.6,3.6,0,0,1,7.21,0v61.64a3.605,3.605,0,0,1-3.6,3.6Z" transform="translate(-320.441 -58.945)"/></g></svg>