<svg xmlns="http://www.w3.org/2000/svg" width="179.886" height="180.552" viewBox="0 0 179.886 180.552">
  <g id="Group_3" data-name="Group 3" transform="translate(-928 -511)">
    <path id="icons8-inscription_1_" data-name="icons8-inscription (1)" d="M15.138,4A11.2,11.2,0,0,0,4,15.138V145.085a11.2,11.2,0,0,0,11.138,11.138H135.317l13.85,13.734a14.915,14.915,0,0,0,21.537,0c5.94-5.94,5.2-15.589,0-21.53L159.936,137.8V15.138A11.2,11.2,0,0,0,148.8,4Zm0,7.426H148.8a3.654,3.654,0,0,1,3.713,3.713V130.473L117.986,96.4a3.7,3.7,0,0,0-1.646-.943L94.063,89.517a3.719,3.719,0,0,0-4.532,4.6L95.847,116.4a3.7,3.7,0,0,0,.957,1.624L127.833,148.8H15.138a3.654,3.654,0,0,1-3.713-3.713V15.138a3.654,3.654,0,0,1,3.713-3.712ZM37.415,37.415a3.713,3.713,0,1,0,0,7.426h89.106a3.713,3.713,0,1,0,0-7.426Zm0,25.989a3.713,3.713,0,1,0,0,7.426h89.106a3.713,3.713,0,1,0,0-7.426Zm0,25.989a3.713,3.713,0,1,0,0,7.426H74.542a3.713,3.713,0,0,0,0-7.426Zm76.061,12.987,49.208,48.86L151.6,162.329l-48.875-48.9L102.6,113Z" transform="translate(924 517)" fill="#fae6c5"/>
    <path id="icons8-inscription" d="M15.138,4A11.2,11.2,0,0,0,4,15.138V145.085a11.2,11.2,0,0,0,11.138,11.138H135.317l13.85,13.734a14.915,14.915,0,0,0,21.537,0c5.94-5.94,5.2-15.589,0-21.53L159.936,137.8V15.138A11.2,11.2,0,0,0,148.8,4Zm0,7.426H148.8a3.654,3.654,0,0,1,3.713,3.713V130.473L117.986,96.4a3.7,3.7,0,0,0-1.646-.943L94.063,89.517a3.719,3.719,0,0,0-4.532,4.6L95.847,116.4a3.7,3.7,0,0,0,.957,1.624L127.833,148.8H15.138a3.654,3.654,0,0,1-3.713-3.713V15.138a3.654,3.654,0,0,1,3.713-3.712ZM37.415,37.415a3.713,3.713,0,1,0,0,7.426h89.106a3.713,3.713,0,1,0,0-7.426Zm0,25.989a3.713,3.713,0,1,0,0,7.426h89.106a3.713,3.713,0,1,0,0-7.426Zm0,25.989a3.713,3.713,0,1,0,0,7.426H74.542a3.713,3.713,0,0,0,0-7.426Zm76.061,12.987,49.208,48.86L151.6,162.329l-48.875-48.9L102.6,113Z" transform="translate(933 507)" fill="#6177fb"/>
  </g>
</svg>
