<svg xmlns="http://www.w3.org/2000/svg" width="177.189" height="177.172" viewBox="0 0 177.189 177.172">
  <g id="Group_4" data-name="Group 4" transform="translate(-1349 -514)">
    <path id="icons8-training_1_" data-name="icons8-training (1)" d="M39,2A18.5,18.5,0,1,0,57.5,20.5,18.5,18.5,0,0,0,39,2Zm62.888,0V9.4H64.9v7.4h99.88v96.181H68.6v7.4h31.444L79.693,161.069h7.4l18.5-36.993,18.5,36.993h7.4l-20.346-40.692h57.339a3.706,3.706,0,0,0,3.7-3.7V13.1a3.706,3.706,0,0,0-3.7-3.7h-59.2V2ZM39,9.4a11.046,11.046,0,1,1-7.865,3.235A11.1,11.1,0,0,1,39,9.4ZM22.354,42.692A20.4,20.4,0,0,0,2.008,63.038v45.547a2.472,2.472,0,0,0,0,.462v.231a3.6,3.6,0,0,0,.116,1.04,11.132,11.132,0,0,0,10.982,10.057,10.914,10.914,0,0,0,3.7-.694v39.536A12.917,12.917,0,0,0,39,168.236a12.917,12.917,0,0,0,22.2-9.017V64.888h40.692a11.1,11.1,0,0,0,.231-22.2H50.1a3.675,3.675,0,0,0-3.352,2.081L39,60.264,31.255,44.773A3.675,3.675,0,0,0,27.9,42.692Zm0,7.4h3.237L35.648,70.205a3.7,3.7,0,0,0,6.7,0L52.41,50.091h49.825a3.708,3.708,0,0,1-.347,7.4H57.5a3.706,3.706,0,0,0-3.7,3.7v98.031a5.565,5.565,0,0,1-11.1.578V120.38a3.7,3.7,0,0,0-4.046-3.815,4.324,4.324,0,0,0-.462.116,3.707,3.707,0,0,0-2.89,3.7V158.53a2.473,2.473,0,0,0,0,.462v.809a5.565,5.565,0,0,1-11.1-.578V72.286a3.7,3.7,0,0,0-7.4,0v36.993a3.7,3.7,0,0,1-7.4.231v-.231a2.785,2.785,0,0,0,0-.694V63.038A12.89,12.89,0,0,1,22.354,50.091Z" transform="translate(1347.003 519)" fill="#fae6c5"/>
    <path id="icons8-training" d="M39,2A18.5,18.5,0,1,0,57.5,20.5,18.5,18.5,0,0,0,39,2Zm62.888,0V9.4H64.9v7.4h99.88v96.181H68.6v7.4h31.444L79.693,161.069h7.4l18.5-36.993,18.5,36.993h7.4l-20.346-40.692h57.339a3.706,3.706,0,0,0,3.7-3.7V13.1a3.706,3.706,0,0,0-3.7-3.7h-59.2V2ZM39,9.4a11.046,11.046,0,1,1-7.865,3.235A11.1,11.1,0,0,1,39,9.4ZM22.354,42.692A20.4,20.4,0,0,0,2.008,63.038v45.547a2.472,2.472,0,0,0,0,.462v.231a3.6,3.6,0,0,0,.116,1.04,11.132,11.132,0,0,0,10.982,10.057,10.914,10.914,0,0,0,3.7-.694v39.536A12.917,12.917,0,0,0,39,168.236a12.917,12.917,0,0,0,22.2-9.017V64.888h40.692a11.1,11.1,0,0,0,.231-22.2H50.1a3.675,3.675,0,0,0-3.352,2.081L39,60.264,31.255,44.773A3.675,3.675,0,0,0,27.9,42.692Zm0,7.4h3.237L35.648,70.205a3.7,3.7,0,0,0,6.7,0L52.41,50.091h49.825a3.708,3.708,0,0,1-.347,7.4H57.5a3.706,3.706,0,0,0-3.7,3.7v98.031a5.565,5.565,0,0,1-11.1.578V120.38a3.7,3.7,0,0,0-4.046-3.815,4.324,4.324,0,0,0-.462.116,3.707,3.707,0,0,0-2.89,3.7V158.53a2.473,2.473,0,0,0,0,.462v.809a5.565,5.565,0,0,1-11.1-.578V72.286a3.7,3.7,0,0,0-7.4,0v36.993a3.7,3.7,0,0,1-7.4.231v-.231a2.785,2.785,0,0,0,0-.694V63.038A12.89,12.89,0,0,1,22.354,50.091Z" transform="translate(1354.003 512)" fill="#6177fb"/>
  </g>
</svg>
